<svg xmlns="http://www.w3.org/2000/svg" xmlns:xlink="http://www.w3.org/1999/xlink" width="128" zoomAndPan="magnify" viewBox="0 0 96 95.999999" height="128" preserveAspectRatio="xMidYMid meet" version="1.0"><defs><clipPath id="74d8fe9f04"><path d="M 2.464844 0.722656 L 93.6875 0.722656 L 93.6875 47.152344 L 2.464844 47.152344 Z M 2.464844 0.722656 " clip-rule="nonzero"/></clipPath><clipPath id="9117943bd8"><path d="M 93.535156 47.152344 C 93.535156 21.863281 72.800781 0.722656 48 0.722656 C 23.199219 0.722656 2.464844 21.863281 2.464844 47.152344 Z M 93.535156 47.152344 " clip-rule="nonzero"/></clipPath><clipPath id="e7e6b42c31"><path d="M 0.464844 0.722656 L 91.601562 0.722656 L 91.601562 47.152344 L 0.464844 47.152344 Z M 0.464844 0.722656 " clip-rule="nonzero"/></clipPath><clipPath id="f2981a4a11"><path d="M 91.535156 47.152344 C 91.535156 21.863281 70.800781 0.722656 46 0.722656 C 21.199219 0.722656 0.464844 21.863281 0.464844 47.152344 Z M 91.535156 47.152344 " clip-rule="nonzero"/></clipPath><clipPath id="383150f74b"><rect x="0" width="92" y="0" height="48"/></clipPath><clipPath id="d32ba7a01d"><path d="M 2.3125 48.808594 L 93.53125 48.808594 L 93.53125 95.238281 L 2.3125 95.238281 Z M 2.3125 48.808594 " clip-rule="nonzero"/></clipPath><clipPath id="6a7bf36941"><path d="M 2.464844 48.808594 C 2.464844 74.097656 23.199219 95.238281 48 95.238281 C 72.800781 95.238281 93.53125 74.097656 93.53125 48.808594 Z M 2.464844 48.808594 " clip-rule="nonzero"/></clipPath><clipPath id="1ee0cca58a"><path d="M 0.398438 0.808594 L 91.53125 0.808594 L 91.53125 47.238281 L 0.398438 47.238281 Z M 0.398438 0.808594 " clip-rule="nonzero"/></clipPath><clipPath id="d736f054fd"><path d="M 0.464844 0.808594 C 0.464844 26.097656 21.199219 47.238281 46 47.238281 C 70.800781 47.238281 91.53125 26.097656 91.53125 0.808594 Z M 0.464844 0.808594 " clip-rule="nonzero"/></clipPath><clipPath id="ea59da6157"><rect x="0" width="92" y="0" height="48"/></clipPath><clipPath id="ea24b6fffc"><path d="M 30 28 L 74.84375 28 L 74.84375 82.570312 L 30 82.570312 Z M 30 28 " clip-rule="nonzero"/></clipPath><clipPath id="9fea89b894"><path d="M 34 13.570312 L 39 13.570312 L 39 24 L 34 24 Z M 34 13.570312 " clip-rule="nonzero"/></clipPath></defs><g clip-path="url(#74d8fe9f04)"><g clip-path="url(#9117943bd8)"><g transform="matrix(1, 0, 0, 1, 2, -0.000000000000008105)"><g clip-path="url(#383150f74b)"><g clip-path="url(#e7e6b42c31)"><g clip-path="url(#f2981a4a11)"><path fill="#f2644c" d="M 0.464844 0.722656 L 91.503906 0.722656 L 91.503906 47.152344 L 0.464844 47.152344 Z M 0.464844 0.722656 " fill-opacity="1" fill-rule="nonzero"/></g></g></g></g></g></g><g clip-path="url(#d32ba7a01d)"><g clip-path="url(#6a7bf36941)"><g transform="matrix(1, 0, 0, 1, 2, 48)"><g clip-path="url(#ea59da6157)"><g clip-path="url(#1ee0cca58a)"><g clip-path="url(#d736f054fd)"><path fill="#5f2ad3" d="M 91.53125 47.238281 L 0.492188 47.238281 L 0.492188 0.808594 L 91.53125 0.808594 Z M 91.53125 47.238281 " fill-opacity="1" fill-rule="nonzero"/></g></g></g></g></g></g><g clip-path="url(#ea24b6fffc)"><path fill="#ffffff" d="M 73.664062 54.476562 L 71.976562 47.179688 C 71.515625 45.191406 69.683594 43.742188 67.65625 43.9375 C 65.199219 44.175781 63.574219 46.519531 64.113281 48.84375 L 63.664062 46.898438 C 63.203125 44.910156 61.371094 43.460938 59.34375 43.65625 C 56.886719 43.894531 55.261719 46.238281 55.800781 48.5625 L 55.351562 46.613281 C 54.890625 44.628906 53.058594 43.179688 51.03125 43.375 C 48.574219 43.609375 46.949219 45.957031 47.488281 48.28125 L 43.609375 31.542969 C 43.113281 29.390625 40.941406 28.039062 38.789062 28.535156 C 36.636719 29.035156 35.285156 31.203125 35.785156 33.355469 L 42.777344 63.535156 C 42.878906 63.984375 42.320312 64.277344 42.007812 63.941406 C 40.003906 61.808594 37.445312 58.75 37.425781 58.722656 C 36.042969 57.035156 33.554688 56.785156 31.867188 58.167969 C 30.175781 59.546875 29.925781 62.035156 31.308594 63.722656 C 31.472656 63.921875 36.460938 69.949219 40.699219 73.734375 C 46.097656 78.546875 50.265625 80.476562 52.300781 81.28125 C 54.339844 82.085938 56.300781 82.394531 57.445312 82.128906 C 58.59375 81.863281 67.359375 79.832031 67.359375 79.832031 C 69.085938 79.429688 70.503906 78.195312 71.164062 76.519531 L 72.382812 73.421875 C 74.699219 67.539062 75.148438 60.878906 73.664062 54.476562 Z M 73.664062 54.476562 " fill-opacity="1" fill-rule="nonzero"/></g><g clip-path="url(#9fea89b894)"><path fill="#ffffff" d="M 35.675781 22.128906 C 35.875 22.984375 36.726562 23.515625 37.582031 23.316406 C 38.4375 23.117188 38.96875 22.265625 38.769531 21.410156 L 37.28125 14.984375 C 37.082031 14.128906 36.230469 13.597656 35.375 13.796875 C 34.523438 13.992188 33.988281 14.847656 34.1875 15.699219 Z M 35.675781 22.128906 " fill-opacity="1" fill-rule="nonzero"/></g><path fill="#ffffff" d="M 23.957031 24.503906 L 29.554688 27.996094 C 29.929688 28.226562 30.359375 28.285156 30.753906 28.195312 C 31.148438 28.101562 31.511719 27.859375 31.742188 27.488281 C 32.207031 26.742188 31.980469 25.765625 31.234375 25.300781 L 25.636719 21.808594 C 24.894531 21.34375 23.914062 21.570312 23.449219 22.316406 C 22.988281 23.058594 23.214844 24.039062 23.957031 24.503906 Z M 23.957031 24.503906 " fill-opacity="1" fill-rule="nonzero"/><path fill="#ffffff" d="M 30.5625 34.566406 C 30.367188 33.710938 29.511719 33.179688 28.660156 33.378906 L 22.230469 34.867188 C 21.378906 35.066406 20.84375 35.917969 21.042969 36.773438 C 21.242188 37.625 22.09375 38.160156 22.949219 37.960938 L 29.375 36.472656 C 30.230469 36.273438 30.761719 35.421875 30.5625 34.566406 Z M 30.5625 34.566406 " fill-opacity="1" fill-rule="nonzero"/><path fill="#ffffff" d="M 48.832031 30.335938 C 49.03125 31.1875 49.882812 31.722656 50.738281 31.523438 L 57.164062 30.035156 C 58.019531 29.835938 58.550781 28.984375 58.351562 28.128906 C 58.15625 27.273438 57.300781 26.742188 56.449219 26.941406 L 50.019531 28.429688 C 49.164062 28.628906 48.632812 29.480469 48.832031 30.335938 Z M 48.832031 30.335938 " fill-opacity="1" fill-rule="nonzero"/><path fill="#ffffff" d="M 44.660156 24.496094 C 45.03125 24.726562 45.464844 24.785156 45.859375 24.695312 C 46.253906 24.605469 46.613281 24.359375 46.847656 23.988281 L 50.339844 18.390625 C 50.804688 17.648438 50.578125 16.667969 49.832031 16.203125 C 49.089844 15.738281 48.109375 15.964844 47.644531 16.710938 L 44.152344 22.308594 C 43.6875 23.050781 43.914062 24.03125 44.660156 24.496094 Z M 44.660156 24.496094 " fill-opacity="1" fill-rule="nonzero"/></svg>